<svg width="20" height="22" viewBox="0 0 20 22" fill="none" xmlns="http://www.w3.org/2000/svg">
<path fill-rule="evenodd" clip-rule="evenodd" d="M14.4374 0.99884C15.0921 0.99884 15.7197 1.26026 16.1781 1.72226L19.279 4.82316C19.7407 5.28484 20.0001 5.91101 20.0001 6.56392C20.0001 7.21683 19.7407 7.843 19.279 8.30468L7.95751 19.6226C7.25902 20.4283 6.2689 20.9234 5.1346 21.0012H0V20.0012L0.00324765 15.7861C0.0884382 14.7317 0.578667 13.7512 1.3265 13.0923L12.6954 1.72347C13.1564 1.25967 13.7834 0.99884 14.4374 0.99884ZM5.06398 19.0037C5.59821 18.9658 6.09549 18.7172 6.49479 18.2605L14.0567 10.6986L10.3023 6.94403L2.6961 14.5484C2.29095 14.9068 2.04031 15.4081 2 15.8667V19.0018L5.06398 19.0037ZM11.7167 5.52999L15.4709 9.28434L17.8648 6.89046C17.9514 6.80386 18.0001 6.6864 18.0001 6.56392C18.0001 6.44144 17.9514 6.32398 17.8648 6.23738L14.7611 3.1337C14.6755 3.04739 14.5589 2.99884 14.4374 2.99884C14.3158 2.99884 14.1992 3.04739 14.1136 3.1337L11.7167 5.52999Z" fill="black"/>
</svg>
